<?xml version="1.0" encoding="utf-8"?>
<!-- Generator: Adobe Illustrator 26.0.3, SVG Export Plug-In . SVG Version: 6.00 Build 0)  -->
<svg version="1.1" xmlns="http://www.w3.org/2000/svg" xmlns:xlink="http://www.w3.org/1999/xlink" x="0px" y="0px"
	 viewBox="0 0 1920 1080" style="enable-background:new 0 0 1920 1080;" xml:space="preserve">
<style type="text/css">
	.st0{display:none;}
	.st1{display:inline;fill:#F2F2F2;}
	.st2{display:inline;fill:#0C0C0C;}
	.st3{fill:#0A0A0A;}
	.st4{display:none;fill:#0A0A0A;}
	.st5{font-family:'VisbyCF-Heavy';}
	.st6{font-size:309.4902px;}
</style>
<g id="BG" class="st0">
	<rect x="-0.6" class="st1" width="1921.2" height="1080"/>
	<rect x="-0.6" class="st2" width="1921.2" height="1080"/>
</g>
<g id="Layer_2">
	<g>
		<path class="st3" d="M735.2,375.7l92.3-14.6v-42l-137.7,21.8l-0.3,210l200.8-31.8v-42l-155.1,24.6c-1.9,0.3-3.4-1-3.4-2.9v-23.2
			c0-1.9,1.5-3.6,3.4-3.9l113.6-18v-42l-113.6,18c-1.9,0.3-3.4-1-3.4-2.9v-47.2C731.8,377.8,733.3,376,735.2,375.7z"/>
		<path class="st3" d="M934.9,302.1l-86.1,13.6v210l42-6.7v-72l25.3-4l114.6,168c0.7,1,2.3,0.2,1.9-0.9l-58.5-178.9
			C1017,399.1,1027.6,287.4,934.9,302.1z M933.4,398.3l-42.6,6.7v-54l44.1-7C964.9,339.3,968.8,392.7,933.4,398.3z"/>
		<path class="st3" d="M1088.7,400.4l-39-116.5l-44.1,7L1074,490l10.2,28.1c1.5,4,7.2,4,8.6-0.1l10.9-32.6l68.1-220.8l-44.1,7
			L1088.7,400.4z"/>
		<g>
			<path class="st3" d="M1385.4,208.1l-59.6,51.5c-11.6-11.2-28.6-16.8-47.2-13.9l-39.3,6.2c-35.1,5.6-62.7,38.1-62.7,72.6
				l-0.3,87.9c0,35.1,28.2,58.5,63,53l39.3-6.2c34.5-5.5,62.7-37.8,62.7-72.3v-89.4c0-10-2.5-19.1-6.9-26.8l52.6-61.1
				C1388,208.7,1386.5,207.2,1385.4,208.1z M1218.3,318.3c0-12,9.3-22.5,21-24.3l39.3-6.2c4.6-0.7,8.8,0.1,12.2,2.1l-72.5,62.6
				V318.3z M1299.6,393c0,12-9.3,22.5-21,24.3l-39.3,6.2c-12,1.9-21-5.7-21-17.7v-0.1l81.3-94.5V393z"/>
		</g>
		<path class="st3" d="M442.4,352.6c-1.5-4.1-7.3-4-8.6,0.1l-10.9,32.6l-68.1,220.8l44.1-7l39-128.9l39,116.5l44.1-7l-68.4-199.2
			L442.4,352.6z"/>
		<text transform="matrix(1 0 0 1 301.6663 716.3898)" class="st4 st5 st6">ACERVO</text>
	</g>
	<path class="st3" d="M607.6,524.9l-24.1,3.8c-11.5,1.8-20.9-6.1-20.9-17.6v-87.8c0-11.5,9.4-22.4,20.9-24.2l24.1-3.8
		c11.4-1.8,21,6.2,21,17.6l0,0v34.2l42-6.7v-34.2l0,0c0-33-27-58.7-63-53l-24,3.8c-35.1,5.6-63,38.8-63,73v87.6c0,33,27,58.7,63,53
		l24-3.8c35.1-5.6,63-38.8,63-73l-42,6.7C628.6,512,619,523.1,607.6,524.9z"/>
</g>
<g id="Layer_3">
	<path class="st3" d="M400.1,672.4l18.6-46.2c0.6-1.6-0.7-3.3-2.4-3l-49.3,7c-1.7,0.2-2.5,2.2-1.4,3.6l30.7,39.2
		C397.3,674.3,399.4,674,400.1,672.4z"/>
	<path class="st3" d="M464.1,608.7l-20.3,27c-0.7,1-0.5,2.4,0.4,3.1l27,20.3c1,0.7,2.4,0.5,3.1-0.4l20.3-27c0.7-1,0.5-2.4-0.4-3.1
		l-27-20.3C466.2,607.6,464.8,607.8,464.1,608.7z"/>
	<path class="st3" d="M544.8,596.1l-22.4,21.7c-0.7,0.7-0.9,1.7-0.5,2.6l13.7,28c0.4,0.9,1.4,1.4,2.3,1.2l30.9-4.4
		c1-0.1,1.7-0.9,1.9-1.8l5.4-30.7c0.2-1-0.3-1.9-1.2-2.4l-27.6-14.6C546.5,595.3,545.5,595.4,544.8,596.1z"/>
	<path class="st3" d="M640,584.8l-25.9,3.7c-0.8,0.1-1.5,0.6-1.8,1.4l-9.8,24.3c-0.3,0.7-0.2,1.6,0.3,2.2L619,637
		c0.5,0.6,1.3,0.9,2.1,0.8l25.9-3.7c0.8-0.1,1.5-0.6,1.8-1.4l9.8-24.3c0.3-0.7,0.2-1.6-0.3-2.2L642,585.7
		C641.5,585,640.8,584.7,640,584.8z"/>
	<path class="st3" d="M706.2,572.4l-18.4,12.3c-0.6,0.4-0.9,1-1,1.7l-1.8,22.1c-0.1,0.7,0.2,1.3,0.7,1.8l16.1,15.2
		c0.5,0.5,1.2,0.7,1.8,0.6l21.9-3.1c0.7-0.1,1.3-0.5,1.6-1.1l11.2-19.1c0.3-0.6,0.4-1.3,0.2-1.9l-7.9-20.7c-0.2-0.6-0.8-1.1-1.4-1.3
		l-21.1-6.7C707.5,571.9,706.8,572,706.2,572.4z"/>
	<path class="st3" d="M797.7,559.1l-19.9,2.8c-0.6,0.1-1.1,0.4-1.5,0.9l-12.1,16.1c-0.4,0.5-0.5,1.1-0.4,1.7l2.8,19.9
		c0.1,0.6,0.4,1.1,0.9,1.5l16.1,12.1c0.5,0.4,1.1,0.5,1.7,0.4l19.9-2.8c0.6-0.1,1.1-0.4,1.5-0.9l12.1-16.1c0.4-0.5,0.5-1.1,0.4-1.7
		l-2.8-19.9c-0.1-0.6-0.4-1.1-0.9-1.5l-16.1-12.1C798.9,559.2,798.3,559,797.7,559.1z"/>
	<path class="st3" d="M867.6,549.2l-15.2,8.1c-0.4,0.2-0.8,0.6-0.9,1l-6.4,16c-0.2,0.4-0.2,0.9,0,1.4l5.4,16.4
		c0.1,0.5,0.5,0.8,0.9,1.1l14.6,9.1c0.4,0.3,0.9,0.4,1.4,0.3l17.1-2.4c0.5-0.1,0.9-0.3,1.2-0.7l11.5-12.8c0.3-0.4,0.5-0.8,0.5-1.3
		l0.6-17.2c0-0.5-0.1-0.9-0.4-1.3l-10.6-13.6c-0.3-0.4-0.7-0.6-1.2-0.7L869,549C868.5,548.9,868.1,548.9,867.6,549.2z"/>
</g>
</svg>
